# xmcd CD database file generated by Grip 3.3.1
# 
# Track frame offsets:
#       150
#       7065
#       28087
#       42217
#       57108
#       86293
#       110453
#       123394
#       148069
#       155763
#       204525
#       221481
#       243871
#       255703
#       280391
#       311385
#       327859
# 
# Disc length: 4595 seconds
# 
# Revision: 3
# Processed by: cddbd v1.5.2PL0 Copyright (c) Steve Scherf et al.
# Submitted via: Grip 3.3.1
# 
DISCID=f011f111
DTITLE=hilsong - Hilsong united
DYEAR=2005
DGENRE=Rock
TTITLE0=Introduccion
TTITLE1=Es Tiempo
TTITLE2=Tomalo
TTITLE3=Su hijo dio
TTITLE4=Desde mi interior
TTITLE5=Me viniste a rescatar
TTITLE6=Repeticion
TTITLE7=Solo Cristo
TTITLE8=Selah
TTITLE9=Fuego de Dios
TTITLE10=La Revolucion
TTITLE11=Venga tu reino
TTITLE12=Nadie hay como Tu
TTITLE13=Soberano
TTITLE14=Aqui Estoy
TTITLE15=Selah 2
TTITLE16=Aleluya
EXTD=
EXTT0=
EXTT1=
EXTT2=
EXTT3=
EXTT4=
EXTT5=
EXTT6=
EXTT7=
EXTT8=
EXTT9=
EXTT10=
EXTT11=
EXTT12=
EXTT13=
EXTT14=
EXTT15=
EXTT16=
PLAYORDER=
